<svg xmlns="http://www.w3.org/2000/svg" viewBox="0 0 300 200" width="300" height="200" style="width: 100%; height: 100%; transform: translate3d(0px, 0px, 0px);" preserveAspectRatio="xMidYMid meet"><defs><clipPath id="__lottie_element_29"><rect width="300" height="200" x="0" y="0"></rect></clipPath></defs><g clip-path="url(#__lottie_element_29)"><g style="display: block;" transform="matrix(1,0,0,1,150,100)" opacity="1"><g opacity="1" transform="matrix(1,0,0,1,0,0)"><path stroke-linecap="round" stroke-linejoin="miter" fill-opacity="0" stroke-miterlimit="10" stroke="rgb(31,42,93)" stroke-opacity="1" stroke-width="4" d=" M94.90799713134766,-61.91400146484375 C96.96299743652344,-59.194000244140625 98.18099975585938,-55.80699920654297 98.18099975585938,-52.1349983215332 C98.18099975585938,-52.1349983215332 98.18099975585938,51.50899887084961 98.18099975585938,51.50899887084961 C98.18099975585938,60.47999954223633 90.90899658203125,67.75199890136719 81.93800354003906,67.75199890136719 C81.93800354003906,67.75199890136719 81.93800354003906,67.75199890136719 81.93800354003906,67.75199890136719 C81.93800354003906,67.75199890136719 -81.65299987792969,67.75199890136719 -81.65299987792969,67.75199890136719 C-90.6240005493164,67.75199890136719 -97.89600372314453,60.47999954223633 -97.89600372314453,51.50899887084961 C-97.89600372314453,51.50899887084961 -97.89600372314453,-52.1349983215332 -97.89600372314453,-52.1349983215332 C-97.89600372314453,-61.10599899291992 -90.6240005493164,-68.37799835205078 -81.65299987792969,-68.37799835205078 C-81.65299987792969,-68.37799835205078 81.93800354003906,-68.37799835205078 81.93800354003906,-68.37799835205078 C87.23699951171875,-68.37799835205078 91.94400024414062,-65.84100341796875 94.90799713134766,-61.91400146484375"></path></g></g><g style="display: block;" transform="matrix(1,0,0,1,150,100)" opacity="1"><g opacity="1" transform="matrix(1,0,0,1,0,0)"><path stroke-linecap="round" stroke-linejoin="miter" fill-opacity="0" stroke-miterlimit="10" stroke="rgb(31,42,93)" stroke-opacity="1" stroke-width="3" d=" M-1.2760000228881836,-39.215999603271484 C11.878999710083008,-30.33099937438965 20.52899932861328,-15.281999588012695 20.52899932861328,1.7879999876022339 C20.52899932861328,1.7879999876022339 20.52899932861328,1.7879999876022339 20.52899932861328,1.7879999876022339 C20.52899932861328,29.09600067138672 -1.6080000400543213,51.233001708984375 -28.916000366210938,51.233001708984375 C-56.2239990234375,51.233001708984375 -78.36100006103516,29.09600067138672 -78.36100006103516,1.7879999876022339 C-78.36100006103516,-25.520000457763672 -56.2239990234375,-47.65700149536133 -28.916000366210938,-47.65700149536133 C-18.67799949645996,-47.65700149536133 -9.166000366210938,-44.54499816894531 -1.2760000228881836,-39.215999603271484"></path></g></g><g style="display: block;" transform="matrix(1,0,0,1,150,100)" opacity="1"><g opacity="1" transform="matrix(1,0,0,1,0,0)"><path stroke-linecap="round" stroke-linejoin="miter" fill-opacity="0" stroke-miterlimit="10" stroke="rgb(31,42,93)" stroke-opacity="1" stroke-width="4" d=" M77.10700225830078,-34.06800079345703 C77.10700225830078,-34.06800079345703 77.10700225830078,33.69300079345703 77.10700225830078,33.69300079345703"></path></g></g><g style="display: block;" transform="matrix(0.9998478293418884,-0.01745239831507206,0.01745239831507206,0.9998478293418884,149.9672393798828,99.49630737304688)" opacity="1"><g opacity="1" transform="matrix(1,0,0,1,0,0)"><path stroke-linecap="round" stroke-linejoin="miter" fill-opacity="0" stroke-miterlimit="10" stroke="rgb(77,177,255)" stroke-opacity="1" stroke-width="4" d=" M0.5180000066757202,31.222999572753906 C0.5180000066757202,31.222999572753906 -14.098999977111816,16.433000564575195 -14.098999977111816,16.433000564575195"></path></g><g opacity="1" transform="matrix(1,0,0,1,0,0)"><path stroke-linecap="round" stroke-linejoin="miter" fill-opacity="0" stroke-miterlimit="10" stroke="rgb(77,177,255)" stroke-opacity="1" stroke-width="4" d=" M-44.57099914550781,-13.866000175476074 C-44.57099914550781,-13.866000175476074 -58.35100173950195,-27.645999908447266 -58.35100173950195,-27.645999908447266"></path></g><g opacity="1" transform="matrix(1,0,0,1,0,0)"><path stroke-linecap="round" stroke-linejoin="miter" fill-opacity="0" stroke-miterlimit="10" stroke="rgb(77,177,255)" stroke-opacity="1" stroke-width="4" d=" M-58.35100173950195,31.222999572753906 C-58.35100173950195,31.222999572753906 -44.57099914550781,17.27899932861328 -44.57099914550781,17.27899932861328"></path></g><g opacity="1" transform="matrix(1,0,0,1,0,0)"><path stroke-linecap="round" stroke-linejoin="miter" fill-opacity="0" stroke-miterlimit="10" stroke="rgb(77,177,255)" stroke-opacity="1" stroke-width="4" d=" M-13.26200008392334,-13.866000175476074 C-13.26200008392334,-13.866000175476074 0.5180000066757202,-27.645999908447266 0.5180000066757202,-27.645999908447266"></path></g><g opacity="1" transform="matrix(1,0,0,1,0,0)"><path stroke-linecap="round" stroke-linejoin="miter" fill-opacity="0" stroke-miterlimit="10" stroke="rgb(77,177,255)" stroke-opacity="1" stroke-width="4" d=" M-28.916000366210938,43.415000915527344 C-28.916000366210938,43.415000915527344 -28.67099952697754,22.43000030517578 -28.67099952697754,22.43000030517578"></path></g><g opacity="1" transform="matrix(1,0,0,1,0,0)"><path stroke-linecap="round" stroke-linejoin="miter" fill-opacity="0" stroke-miterlimit="10" stroke="rgb(77,177,255)" stroke-opacity="1" stroke-width="4" d=" M-28.916000366210938,-19.996999740600586 C-28.916000366210938,-19.996999740600586 -28.916000366210938,-39.8380012512207 -28.916000366210938,-39.8380012512207"></path></g><g opacity="1" transform="matrix(1,0,0,1,0,0)"><path stroke-linecap="round" stroke-linejoin="miter" fill-opacity="0" stroke-miterlimit="10" stroke="rgb(77,177,255)" stroke-opacity="1" stroke-width="4" d=" M-70.54299926757812,1.7879999876022339 C-70.54299926757812,1.7879999876022339 -50.154998779296875,1.5410000085830688 -50.154998779296875,1.5410000085830688"></path></g><g opacity="1" transform="matrix(1,0,0,1,0,0)"><path stroke-linecap="round" stroke-linejoin="miter" fill-opacity="0" stroke-miterlimit="10" stroke="rgb(77,177,255)" stroke-opacity="1" stroke-width="4" d=" M-7.5879998207092285,1.7879999876022339 C-7.5879998207092285,1.7879999876022339 12.711000442504883,1.7879999876022339 12.711000442504883,1.7879999876022339"></path></g><g opacity="1" transform="matrix(1,0,0,1,0,0)"><path stroke-linecap="round" stroke-linejoin="miter" fill-opacity="0" stroke-miterlimit="10" stroke="rgb(77,177,255)" stroke-opacity="1" stroke-width="4" d=" M-7.679999828338623,1.2400000095367432 C-7.679999828338623,12.968999862670898 -17.18899917602539,22.47800064086914 -28.917999267578125,22.47800064086914 C-40.64699935913086,22.47800064086914 -50.154998779296875,12.968999862670898 -50.154998779296875,1.2400000095367432 C-50.154998779296875,-10.48900032043457 -40.64699935913086,-19.996999740600586 -28.917999267578125,-19.996999740600586 C-17.18899917602539,-19.996999740600586 -7.679999828338623,-10.48900032043457 -7.679999828338623,1.2400000095367432z"></path></g></g></g></svg>