<svg xmlns="http://www.w3.org/2000/svg" viewBox="0 0 120 120" width="120" height="120" style="width: 100%; height: 100%; transform: translate3d(0px, 0px, 0px);" preserveAspectRatio="xMidYMid meet"><defs><clipPath id="__lottie_element_33"><rect width="120" height="120" x="0" y="0"></rect></clipPath><linearGradient id="__lottie_element_44" spreadMethod="pad" gradientUnits="userSpaceOnUse" x1="54" y1="-55" x2="206.1300048828125" y2="-55"><stop offset="0%" stop-color="rgb(248,248,248)" stop-opacity="0"></stop><stop offset="30%" stop-color="rgb(248,248,248)" stop-opacity="0.5"></stop><stop offset="61%" stop-color="rgb(248,248,248)" stop-opacity="1"></stop></linearGradient><linearGradient id="__lottie_element_48" spreadMethod="pad" gradientUnits="userSpaceOnUse" x1="54" y1="-55" x2="206.1300048828125" y2="-55"><stop offset="0%" stop-color="rgb(248,248,248)" stop-opacity="0"></stop><stop offset="30%" stop-color="rgb(248,248,248)" stop-opacity="0.5"></stop><stop offset="61%" stop-color="rgb(248,248,248)" stop-opacity="1"></stop></linearGradient></defs><g clip-path="url(#__lottie_element_33)"><g style="display: block;" transform="matrix(1,0,0,1,-240,-160)" opacity="1"><rect width="600" height="440" fill="#f8f8f8"></rect></g><g style="display: block;" transform="matrix(0.25,0,0,0.25,60,60)" opacity="1"><g opacity="1" transform="matrix(1,0,0,1,0,0)"><path stroke-linecap="butt" stroke-linejoin="miter" fill-opacity="0" stroke-miterlimit="10" stroke="rgb(0,0,55)" stroke-opacity="1" stroke-width="10" d=" M-52.34600067138672,116.63800048828125 C-52.89899826049805,116.9260025024414 -54.95199966430664,117.80999755859375 -55.47800064086914,118.13999938964844 C-62.020999908447266,122.25 -66.37100219726562,129.53199768066406 -66.37100219726562,137.8300018310547 C-66.37100219726562,150.66299438476562 -55.96799850463867,161.0659942626953 -43.1349983215332,161.0659942626953 C-43.1349983215332,161.0659942626953 -1.871999979019165,161.0659942626953 -1.871999979019165,161.0659942626953"></path></g><g opacity="1" transform="matrix(1,0,0,1,0,0)"><path stroke-linecap="butt" stroke-linejoin="miter" fill-opacity="0" stroke-miterlimit="10" stroke="rgb(0,0,55)" stroke-opacity="1" stroke-width="10" d=" M-34.86800003051758,161.0659942626953 C-47.70100021362305,161.0659942626953 -58.104000091552734,171.468994140625 -58.104000091552734,184.302001953125 C-58.104000091552734,197.13499450683594 -47.70100021362305,207.53700256347656 -34.86800003051758,207.53700256347656 C-34.86800003051758,207.53700256347656 -1.871000051498413,207.53700256347656 -1.871000051498413,207.53700256347656 C-1.871000051498413,207.53700256347656 -1.8739999532699585,38.59299850463867 -1.8739999532699585,38.59299850463867 C-1.8739999532699585,25.760000228881836 8.529000282287598,15.357999801635742 21.36199951171875,15.357999801635742 C34.19499969482422,15.357999801635742 44.597999572753906,25.760000228881836 44.597999572753906,38.59299850463867 C44.597999572753906,38.59299850463867 44.597999572753906,94.07099914550781 44.597999572753906,94.07099914550781 C44.597999572753906,106.90399932861328 55.000999450683594,117.30699920654297 67.83399963378906,117.30699920654297 C80.66699981689453,117.30699920654297 91.06999969482422,106.90399932861328 91.06999969482422,94.07099914550781 C91.06999969482422,94.07099914550781 91.06999969482422,-166.89999389648438 91.06999969482422,-166.89999389648438 C91.06999969482422,-166.89999389648438 91.06999969482422,-182.35899353027344 91.06999969482422,-182.35899353027344 C91.06999969482422,-196.22300720214844 79.83000183105469,-207.46299743652344 65.96600341796875,-207.46299743652344 C65.96600341796875,-207.46299743652344 -64.10299682617188,-207.46299743652344 -64.10299682617188,-207.46299743652344 C-77.96700286865234,-207.46299743652344 -89.20600128173828,-196.22300720214844 -89.20600128173828,-182.35899353027344 C-89.20600128173828,-182.35899353027344 -89.20600128173828,91.51599884033203 -89.20600128173828,91.51599884033203 C-89.20600128173828,105.37999725341797 -77.96700286865234,116.61900329589844 -64.10299682617188,116.61900329589844 C-64.10299682617188,116.61900329589844 -1.8730000257492065,116.71900177001953 -1.8730000257492065,116.71900177001953"></path></g><g opacity="1" transform="matrix(1,0,0,1,0,0)"><path stroke-linecap="round" stroke-linejoin="miter" fill-opacity="0" stroke-miterlimit="10" stroke="rgb(0,0,55)" stroke-opacity="1" stroke-width="10" d=" M18.465999603271484,-189.34500122070312 C18.465999603271484,-189.34500122070312 -20.41200065612793,-189.34500122070312 -20.41200065612793,-189.34500122070312"></path></g></g><g style="display: block;" transform="matrix(0.25,0,0,0.25,60,39)" opacity="1"><g opacity="1" transform="matrix(1,0,0,1,0,0)"><path stroke-linecap="round" stroke-linejoin="miter" fill-opacity="0" stroke-miterlimit="10" stroke="rgb(129,218,255)" stroke-opacity="1" stroke-width="4" d=" M1,0 C1,0 10.989999771118164,0 27.27400016784668,0"></path></g></g><g style="display: none;" transform="matrix(0.09754549711942673,0,0,0.09754549711942673,60.829734802246094,38.938560485839844)" opacity="0.00040000000001754187"><g opacity="1" transform="matrix(1,0,0,1,0,0)"><path fill="rgb(255,255,255)" fill-opacity="1" d=" M38.040000915527344,-0.40299999713897705 C38.040000915527344,20.316999435424805 21.243000030517578,37.11399841308594 0.5230000019073486,37.11399841308594 C-20.19700050354004,37.11399841308594 -36.99300003051758,20.316999435424805 -36.99300003051758,-0.40299999713897705 C-36.99300003051758,-21.12299919128418 -20.19700050354004,-37.91899871826172 0.5230000019073486,-37.91899871826172 C21.243000030517578,-37.91899871826172 38.040000915527344,-21.12299919128418 38.040000915527344,-0.40299999713897705z"></path><path stroke-linecap="round" stroke-linejoin="miter" fill-opacity="0" stroke-miterlimit="10" stroke="rgb(129,218,255)" stroke-opacity="1" stroke-width="4" d=" M38.040000915527344,-0.40299999713897705 C38.040000915527344,20.316999435424805 21.243000030517578,37.11399841308594 0.5230000019073486,37.11399841308594 C-20.19700050354004,37.11399841308594 -36.99300003051758,20.316999435424805 -36.99300003051758,-0.40299999713897705 C-36.99300003051758,-21.12299919128418 -20.19700050354004,-37.91899871826172 0.5230000019073486,-37.91899871826172 C21.243000030517578,-37.91899871826172 38.040000915527344,-21.12299919128418 38.040000915527344,-0.40299999713897705z"></path></g><g opacity="1" transform="matrix(1,0,0,1,0,0)"><path stroke-linecap="round" stroke-linejoin="miter" fill-opacity="0" stroke-miterlimit="10" stroke="rgb(129,218,255)" stroke-opacity="1" stroke-width="4" d=" M-20.81599998474121,-12.89799976348877 C-20.81599998474121,-12.89799976348877 -1.0829999446868896,-25.364999771118164 -1.0829999446868896,-25.364999771118164 C0.06199999898672104,-26.089000701904297 1.9079999923706055,-26.062000274658203 3.0179998874664307,-25.305999755859375 C3.0179998874664307,-25.305999755859375 21.86199951171875,-12.475000381469727 21.86199951171875,-12.475000381469727"></path></g><g opacity="1" transform="matrix(1,0,0,1,0,0)"><path fill="rgb(243,244,244)" fill-opacity="1" d=" M-14.164999961853027,-8.331999778747559 C-14.164999961853027,-8.331999778747559 -14.164999961853027,15.38700008392334 -14.164999961853027,15.38700008392334"></path><path stroke-linecap="round" stroke-linejoin="miter" fill-opacity="0" stroke-miterlimit="10" stroke="rgb(129,218,255)" stroke-opacity="1" stroke-width="4" d=" M-14.164999961853027,-8.331999778747559 C-14.164999961853027,-8.331999778747559 -14.164999961853027,15.38700008392334 -14.164999961853027,15.38700008392334"></path></g><g opacity="1" transform="matrix(1,0,0,1,0,0)"><path fill="rgb(243,244,244)" fill-opacity="1" d=" M-18.368000030517578,21.76099967956543 C-18.368000030517578,21.76099967956543 -15.036999702453613,21.76099967956543 -15.036999702453613,21.76099967956543 C-15.036999702453613,21.76099967956543 15.470999717712402,21.76099967956543 15.470999717712402,21.76099967956543 C15.470999717712402,21.76099967956543 18.802000045776367,21.76099967956543 18.802000045776367,21.76099967956543"></path><path stroke-linecap="round" stroke-linejoin="miter" fill-opacity="0" stroke-miterlimit="10" stroke="rgb(129,218,255)" stroke-opacity="1" stroke-width="4" d=" M-18.368000030517578,21.76099967956543 C-18.368000030517578,21.76099967956543 -15.036999702453613,21.76099967956543 -15.036999702453613,21.76099967956543 C-15.036999702453613,21.76099967956543 15.470999717712402,21.76099967956543 15.470999717712402,21.76099967956543 C15.470999717712402,21.76099967956543 18.802000045776367,21.76099967956543 18.802000045776367,21.76099967956543"></path></g><g opacity="1" transform="matrix(1,0,0,1,0,0)"><path stroke-linecap="round" stroke-linejoin="miter" fill-opacity="0" stroke-miterlimit="10" stroke="rgb(129,218,255)" stroke-opacity="1" stroke-width="4" d=" M-14.164999961853027,15.38700008392334 C-14.164999961853027,15.38700008392334 -14.164999961853027,-7.968999862670898 -14.164999961853027,-7.968999862670898 C-14.164999961853027,-9.343999862670898 -12.800999641418457,-10.468000411987305 -11.133999824523926,-10.468000411987305 C-11.133999824523926,-10.468000411987305 -11.133999824523926,-10.468000411987305 -11.133999824523926,-10.468000411987305 C-9.467000007629395,-10.468000411987305 -8.104000091552734,-9.343999862670898 -8.104000091552734,-7.968999862670898 C-8.104000091552734,-7.968999862670898 -8.104000091552734,-4.638000011444092 -8.104000091552734,-4.638000011444092 C-8.104000091552734,-4.638000011444092 -8.104000091552734,12.887999534606934 -8.104000091552734,12.887999534606934"></path></g><g opacity="1" transform="matrix(1,0,0,1,0,0)"><path stroke-linecap="round" stroke-linejoin="miter" fill-opacity="0" stroke-miterlimit="10" stroke="rgb(129,218,255)" stroke-opacity="1" stroke-width="4" d=" M-8.104000091552734,12.887999534606934 C-8.104000091552734,14.262999534606934 -6.739999771118164,15.38700008392334 -5.072999954223633,15.38700008392334 C-5.072999954223633,15.38700008392334 -5.072999954223633,15.38700008392334 -5.072999954223633,15.38700008392334 C-3.4059998989105225,15.38700008392334 -2.0420000553131104,14.262999534606934 -2.0420000553131104,12.887999534606934 C-2.0420000553131104,12.887999534606934 -2.0789999961853027,-7.97599983215332 -2.0789999961853027,-7.97599983215332 C-2.0789999961853027,-9.35099983215332 -0.7149999737739563,-10.475000381469727 0.9520000219345093,-10.475000381469727 C0.9520000219345093,-10.475000381469727 0.9520000219345093,-10.475000381469727 0.9520000219345093,-10.475000381469727 C2.61899995803833,-10.475000381469727 3.9820001125335693,-9.35099983215332 3.9820001125335693,-7.97599983215332 C3.9820001125335693,-7.97599983215332 3.9820001125335693,-4.644999980926514 3.9820001125335693,-4.644999980926514 C3.9820001125335693,-4.644999980926514 3.9820001125335693,11.77299976348877 3.9820001125335693,11.77299976348877"></path></g><g opacity="1" transform="matrix(1,0,0,1,0,0)"><path stroke-linecap="round" stroke-linejoin="miter" fill-opacity="0" stroke-miterlimit="10" stroke="rgb(129,218,255)" stroke-opacity="1" stroke-width="4" d=" M10.036999702453613,-7.97599983215332 C10.036999702453613,-9.35099983215332 11.401000022888184,-10.475000381469727 13.067999839782715,-10.475000381469727 C13.067999839782715,-10.475000381469727 13.067999839782715,-10.475000381469727 13.067999839782715,-10.475000381469727 C14.734999656677246,-10.475000381469727 16.097999572753906,-9.35099983215332 16.097999572753906,-7.97599983215332 C16.097999572753906,-7.97599983215332 16.097999572753906,-4.644999980926514 16.097999572753906,-4.644999980926514 C16.097999572753906,-4.644999980926514 16.097999572753906,15.131999969482422 16.097999572753906,15.131999969482422"></path></g><g opacity="1" transform="matrix(1,0,0,1,0,0)"><path stroke-linecap="round" stroke-linejoin="miter" fill-opacity="0" stroke-miterlimit="10" stroke="rgb(129,218,255)" stroke-opacity="1" stroke-width="4" d=" M10.036999702453613,-7.97599983215332 C10.036999702453613,-7.97599983215332 10.036999702453613,12.887999534606934 10.036999702453613,12.887999534606934 C10.036999702453613,14.262999534606934 8.67300033569336,15.38700008392334 7.00600004196167,15.38700008392334 C7.00600004196167,15.38700008392334 7.00600004196167,15.38700008392334 7.00600004196167,15.38700008392334 C5.339000225067139,15.38700008392334 3.9749999046325684,14.262999534606934 3.9749999046325684,12.887999534606934 C3.9749999046325684,12.887999534606934 3.9749999046325684,9.557000160217285 3.9749999046325684,9.557000160217285"></path></g></g><g style="display: none;" transform="matrix(0.09754549711942673,0,0,0.09754549711942673,60.829734802246094,38.938560485839844)" opacity="0.00040000000003033166"><g opacity="1" transform="matrix(1,0,0,1,0,0)"><path fill="rgb(255,255,255)" fill-opacity="1" d=" M38.040000915527344,-0.40299999713897705 C38.040000915527344,20.316999435424805 21.243000030517578,37.11399841308594 0.5230000019073486,37.11399841308594 C-20.19700050354004,37.11399841308594 -36.99300003051758,20.316999435424805 -36.99300003051758,-0.40299999713897705 C-36.99300003051758,-21.12299919128418 -20.19700050354004,-37.91899871826172 0.5230000019073486,-37.91899871826172 C21.243000030517578,-37.91899871826172 38.040000915527344,-21.12299919128418 38.040000915527344,-0.40299999713897705z"></path><path stroke-linecap="round" stroke-linejoin="miter" fill-opacity="0" stroke-miterlimit="10" stroke="rgb(129,218,255)" stroke-opacity="1" stroke-width="4" d=" M38.040000915527344,-0.40299999713897705 C38.040000915527344,20.316999435424805 21.243000030517578,37.11399841308594 0.5230000019073486,37.11399841308594 C-20.19700050354004,37.11399841308594 -36.99300003051758,20.316999435424805 -36.99300003051758,-0.40299999713897705 C-36.99300003051758,-21.12299919128418 -20.19700050354004,-37.91899871826172 0.5230000019073486,-37.91899871826172 C21.243000030517578,-37.91899871826172 38.040000915527344,-21.12299919128418 38.040000915527344,-0.40299999713897705z"></path></g><g opacity="1" transform="matrix(1,0,0,1,0,0)"><path stroke-linecap="round" stroke-linejoin="miter" fill-opacity="0" stroke-miterlimit="10" stroke="rgb(129,218,255)" stroke-opacity="1" stroke-width="4" d=" M-20.81599998474121,-12.89799976348877 C-20.81599998474121,-12.89799976348877 -1.0829999446868896,-25.364999771118164 -1.0829999446868896,-25.364999771118164 C0.06199999898672104,-26.089000701904297 1.9079999923706055,-26.062000274658203 3.0179998874664307,-25.305999755859375 C3.0179998874664307,-25.305999755859375 21.86199951171875,-12.475000381469727 21.86199951171875,-12.475000381469727"></path></g><g opacity="1" transform="matrix(1,0,0,1,0,0)"><path fill="rgb(243,244,244)" fill-opacity="1" d=" M-14.164999961853027,-8.331999778747559 C-14.164999961853027,-8.331999778747559 -14.164999961853027,15.38700008392334 -14.164999961853027,15.38700008392334"></path><path stroke-linecap="round" stroke-linejoin="miter" fill-opacity="0" stroke-miterlimit="10" stroke="rgb(129,218,255)" stroke-opacity="1" stroke-width="4" d=" M-14.164999961853027,-8.331999778747559 C-14.164999961853027,-8.331999778747559 -14.164999961853027,15.38700008392334 -14.164999961853027,15.38700008392334"></path></g><g opacity="1" transform="matrix(1,0,0,1,0,0)"><path fill="rgb(243,244,244)" fill-opacity="1" d=" M-18.368000030517578,21.76099967956543 C-18.368000030517578,21.76099967956543 -15.036999702453613,21.76099967956543 -15.036999702453613,21.76099967956543 C-15.036999702453613,21.76099967956543 15.470999717712402,21.76099967956543 15.470999717712402,21.76099967956543 C15.470999717712402,21.76099967956543 18.802000045776367,21.76099967956543 18.802000045776367,21.76099967956543"></path><path stroke-linecap="round" stroke-linejoin="miter" fill-opacity="0" stroke-miterlimit="10" stroke="rgb(129,218,255)" stroke-opacity="1" stroke-width="4" d=" M-18.368000030517578,21.76099967956543 C-18.368000030517578,21.76099967956543 -15.036999702453613,21.76099967956543 -15.036999702453613,21.76099967956543 C-15.036999702453613,21.76099967956543 15.470999717712402,21.76099967956543 15.470999717712402,21.76099967956543 C15.470999717712402,21.76099967956543 18.802000045776367,21.76099967956543 18.802000045776367,21.76099967956543"></path></g><g opacity="1" transform="matrix(1,0,0,1,0,0)"><path stroke-linecap="round" stroke-linejoin="miter" fill-opacity="0" stroke-miterlimit="10" stroke="rgb(129,218,255)" stroke-opacity="1" stroke-width="4" d=" M-14.164999961853027,15.38700008392334 C-14.164999961853027,15.38700008392334 -14.164999961853027,-7.968999862670898 -14.164999961853027,-7.968999862670898 C-14.164999961853027,-9.343999862670898 -12.800999641418457,-10.468000411987305 -11.133999824523926,-10.468000411987305 C-11.133999824523926,-10.468000411987305 -11.133999824523926,-10.468000411987305 -11.133999824523926,-10.468000411987305 C-9.467000007629395,-10.468000411987305 -8.104000091552734,-9.343999862670898 -8.104000091552734,-7.968999862670898 C-8.104000091552734,-7.968999862670898 -8.104000091552734,-4.638000011444092 -8.104000091552734,-4.638000011444092 C-8.104000091552734,-4.638000011444092 -8.104000091552734,12.887999534606934 -8.104000091552734,12.887999534606934"></path></g><g opacity="1" transform="matrix(1,0,0,1,0,0)"><path stroke-linecap="round" stroke-linejoin="miter" fill-opacity="0" stroke-miterlimit="10" stroke="rgb(129,218,255)" stroke-opacity="1" stroke-width="4" d=" M-8.104000091552734,12.887999534606934 C-8.104000091552734,14.262999534606934 -6.739999771118164,15.38700008392334 -5.072999954223633,15.38700008392334 C-5.072999954223633,15.38700008392334 -5.072999954223633,15.38700008392334 -5.072999954223633,15.38700008392334 C-3.4059998989105225,15.38700008392334 -2.0420000553131104,14.262999534606934 -2.0420000553131104,12.887999534606934 C-2.0420000553131104,12.887999534606934 -2.0789999961853027,-7.97599983215332 -2.0789999961853027,-7.97599983215332 C-2.0789999961853027,-9.35099983215332 -0.7149999737739563,-10.475000381469727 0.9520000219345093,-10.475000381469727 C0.9520000219345093,-10.475000381469727 0.9520000219345093,-10.475000381469727 0.9520000219345093,-10.475000381469727 C2.61899995803833,-10.475000381469727 3.9820001125335693,-9.35099983215332 3.9820001125335693,-7.97599983215332 C3.9820001125335693,-7.97599983215332 3.9820001125335693,-4.644999980926514 3.9820001125335693,-4.644999980926514 C3.9820001125335693,-4.644999980926514 3.9820001125335693,11.77299976348877 3.9820001125335693,11.77299976348877"></path></g><g opacity="1" transform="matrix(1,0,0,1,0,0)"><path stroke-linecap="round" stroke-linejoin="miter" fill-opacity="0" stroke-miterlimit="10" stroke="rgb(129,218,255)" stroke-opacity="1" stroke-width="4" d=" M10.036999702453613,-7.97599983215332 C10.036999702453613,-9.35099983215332 11.401000022888184,-10.475000381469727 13.067999839782715,-10.475000381469727 C13.067999839782715,-10.475000381469727 13.067999839782715,-10.475000381469727 13.067999839782715,-10.475000381469727 C14.734999656677246,-10.475000381469727 16.097999572753906,-9.35099983215332 16.097999572753906,-7.97599983215332 C16.097999572753906,-7.97599983215332 16.097999572753906,-4.644999980926514 16.097999572753906,-4.644999980926514 C16.097999572753906,-4.644999980926514 16.097999572753906,15.131999969482422 16.097999572753906,15.131999969482422"></path></g><g opacity="1" transform="matrix(1,0,0,1,0,0)"><path stroke-linecap="round" stroke-linejoin="miter" fill-opacity="0" stroke-miterlimit="10" stroke="rgb(129,218,255)" stroke-opacity="1" stroke-width="4" d=" M10.036999702453613,-7.97599983215332 C10.036999702453613,-7.97599983215332 10.036999702453613,12.887999534606934 10.036999702453613,12.887999534606934 C10.036999702453613,14.262999534606934 8.67300033569336,15.38700008392334 7.00600004196167,15.38700008392334 C7.00600004196167,15.38700008392334 7.00600004196167,15.38700008392334 7.00600004196167,15.38700008392334 C5.339000225067139,15.38700008392334 3.9749999046325684,14.262999534606934 3.9749999046325684,12.887999534606934 C3.9749999046325684,12.887999534606934 3.9749999046325684,9.557000160217285 3.9749999046325684,9.557000160217285"></path></g></g><g style="display: none;" transform="matrix(0.09755914658308029,0,0,0.09755914658308029,60.82972717285156,38.938568115234375)" opacity="0.0005200000000257887"><g opacity="1" transform="matrix(1,0,0,1,0,0)"><path fill="rgb(255,255,255)" fill-opacity="1" d=" M38.040000915527344,-0.40299999713897705 C38.040000915527344,20.316999435424805 21.243000030517578,37.11399841308594 0.5230000019073486,37.11399841308594 C-20.19700050354004,37.11399841308594 -36.99300003051758,20.316999435424805 -36.99300003051758,-0.40299999713897705 C-36.99300003051758,-21.12299919128418 -20.19700050354004,-37.91899871826172 0.5230000019073486,-37.91899871826172 C21.243000030517578,-37.91899871826172 38.040000915527344,-21.12299919128418 38.040000915527344,-0.40299999713897705z"></path><path stroke-linecap="round" stroke-linejoin="miter" fill-opacity="0" stroke-miterlimit="10" stroke="rgb(129,218,255)" stroke-opacity="1" stroke-width="4" d=" M38.040000915527344,-0.40299999713897705 C38.040000915527344,20.316999435424805 21.243000030517578,37.11399841308594 0.5230000019073486,37.11399841308594 C-20.19700050354004,37.11399841308594 -36.99300003051758,20.316999435424805 -36.99300003051758,-0.40299999713897705 C-36.99300003051758,-21.12299919128418 -20.19700050354004,-37.91899871826172 0.5230000019073486,-37.91899871826172 C21.243000030517578,-37.91899871826172 38.040000915527344,-21.12299919128418 38.040000915527344,-0.40299999713897705z"></path></g><g opacity="1" transform="matrix(1,0,0,1,0,0)"><path stroke-linecap="round" stroke-linejoin="miter" fill-opacity="0" stroke-miterlimit="10" stroke="rgb(129,218,255)" stroke-opacity="1" stroke-width="4" d=" M-20.81599998474121,-12.89799976348877 C-20.81599998474121,-12.89799976348877 -1.0829999446868896,-25.364999771118164 -1.0829999446868896,-25.364999771118164 C0.06199999898672104,-26.089000701904297 1.9079999923706055,-26.062000274658203 3.0179998874664307,-25.305999755859375 C3.0179998874664307,-25.305999755859375 21.86199951171875,-12.475000381469727 21.86199951171875,-12.475000381469727"></path></g><g opacity="1" transform="matrix(1,0,0,1,0,0)"><path fill="rgb(243,244,244)" fill-opacity="1" d=" M-14.164999961853027,-8.331999778747559 C-14.164999961853027,-8.331999778747559 -14.164999961853027,15.38700008392334 -14.164999961853027,15.38700008392334"></path><path stroke-linecap="round" stroke-linejoin="miter" fill-opacity="0" stroke-miterlimit="10" stroke="rgb(129,218,255)" stroke-opacity="1" stroke-width="4" d=" M-14.164999961853027,-8.331999778747559 C-14.164999961853027,-8.331999778747559 -14.164999961853027,15.38700008392334 -14.164999961853027,15.38700008392334"></path></g><g opacity="1" transform="matrix(1,0,0,1,0,0)"><path fill="rgb(243,244,244)" fill-opacity="1" d=" M-18.368000030517578,21.76099967956543 C-18.368000030517578,21.76099967956543 -15.036999702453613,21.76099967956543 -15.036999702453613,21.76099967956543 C-15.036999702453613,21.76099967956543 15.470999717712402,21.76099967956543 15.470999717712402,21.76099967956543 C15.470999717712402,21.76099967956543 18.802000045776367,21.76099967956543 18.802000045776367,21.76099967956543"></path><path stroke-linecap="round" stroke-linejoin="miter" fill-opacity="0" stroke-miterlimit="10" stroke="rgb(129,218,255)" stroke-opacity="1" stroke-width="4" d=" M-18.368000030517578,21.76099967956543 C-18.368000030517578,21.76099967956543 -15.036999702453613,21.76099967956543 -15.036999702453613,21.76099967956543 C-15.036999702453613,21.76099967956543 15.470999717712402,21.76099967956543 15.470999717712402,21.76099967956543 C15.470999717712402,21.76099967956543 18.802000045776367,21.76099967956543 18.802000045776367,21.76099967956543"></path></g><g opacity="1" transform="matrix(1,0,0,1,0,0)"><path stroke-linecap="round" stroke-linejoin="miter" fill-opacity="0" stroke-miterlimit="10" stroke="rgb(129,218,255)" stroke-opacity="1" stroke-width="4" d=" M-14.164999961853027,15.38700008392334 C-14.164999961853027,15.38700008392334 -14.164999961853027,-7.968999862670898 -14.164999961853027,-7.968999862670898 C-14.164999961853027,-9.343999862670898 -12.800999641418457,-10.468000411987305 -11.133999824523926,-10.468000411987305 C-11.133999824523926,-10.468000411987305 -11.133999824523926,-10.468000411987305 -11.133999824523926,-10.468000411987305 C-9.467000007629395,-10.468000411987305 -8.104000091552734,-9.343999862670898 -8.104000091552734,-7.968999862670898 C-8.104000091552734,-7.968999862670898 -8.104000091552734,-4.638000011444092 -8.104000091552734,-4.638000011444092 C-8.104000091552734,-4.638000011444092 -8.104000091552734,12.887999534606934 -8.104000091552734,12.887999534606934"></path></g><g opacity="1" transform="matrix(1,0,0,1,0,0)"><path stroke-linecap="round" stroke-linejoin="miter" fill-opacity="0" stroke-miterlimit="10" stroke="rgb(129,218,255)" stroke-opacity="1" stroke-width="4" d=" M-8.104000091552734,12.887999534606934 C-8.104000091552734,14.262999534606934 -6.739999771118164,15.38700008392334 -5.072999954223633,15.38700008392334 C-5.072999954223633,15.38700008392334 -5.072999954223633,15.38700008392334 -5.072999954223633,15.38700008392334 C-3.4059998989105225,15.38700008392334 -2.0420000553131104,14.262999534606934 -2.0420000553131104,12.887999534606934 C-2.0420000553131104,12.887999534606934 -2.0789999961853027,-7.97599983215332 -2.0789999961853027,-7.97599983215332 C-2.0789999961853027,-9.35099983215332 -0.7149999737739563,-10.475000381469727 0.9520000219345093,-10.475000381469727 C0.9520000219345093,-10.475000381469727 0.9520000219345093,-10.475000381469727 0.9520000219345093,-10.475000381469727 C2.61899995803833,-10.475000381469727 3.9820001125335693,-9.35099983215332 3.9820001125335693,-7.97599983215332 C3.9820001125335693,-7.97599983215332 3.9820001125335693,-4.644999980926514 3.9820001125335693,-4.644999980926514 C3.9820001125335693,-4.644999980926514 3.9820001125335693,11.77299976348877 3.9820001125335693,11.77299976348877"></path></g><g opacity="1" transform="matrix(1,0,0,1,0,0)"><path stroke-linecap="round" stroke-linejoin="miter" fill-opacity="0" stroke-miterlimit="10" stroke="rgb(129,218,255)" stroke-opacity="1" stroke-width="4" d=" M10.036999702453613,-7.97599983215332 C10.036999702453613,-9.35099983215332 11.401000022888184,-10.475000381469727 13.067999839782715,-10.475000381469727 C13.067999839782715,-10.475000381469727 13.067999839782715,-10.475000381469727 13.067999839782715,-10.475000381469727 C14.734999656677246,-10.475000381469727 16.097999572753906,-9.35099983215332 16.097999572753906,-7.97599983215332 C16.097999572753906,-7.97599983215332 16.097999572753906,-4.644999980926514 16.097999572753906,-4.644999980926514 C16.097999572753906,-4.644999980926514 16.097999572753906,15.131999969482422 16.097999572753906,15.131999969482422"></path></g><g opacity="1" transform="matrix(1,0,0,1,0,0)"><path stroke-linecap="round" stroke-linejoin="miter" fill-opacity="0" stroke-miterlimit="10" stroke="rgb(129,218,255)" stroke-opacity="1" stroke-width="4" d=" M10.036999702453613,-7.97599983215332 C10.036999702453613,-7.97599983215332 10.036999702453613,12.887999534606934 10.036999702453613,12.887999534606934 C10.036999702453613,14.262999534606934 8.67300033569336,15.38700008392334 7.00600004196167,15.38700008392334 C7.00600004196167,15.38700008392334 7.00600004196167,15.38700008392334 7.00600004196167,15.38700008392334 C5.339000225067139,15.38700008392334 3.9749999046325684,14.262999534606934 3.9749999046325684,12.887999534606934 C3.9749999046325684,12.887999534606934 3.9749999046325684,9.557000160217285 3.9749999046325684,9.557000160217285"></path></g></g><g style="display: block;" transform="matrix(0.32499998807907104,0,0,0.32499998807907104,60.710777282714844,39.03022766113281)" opacity="1"><g opacity="1" transform="matrix(1,0,0,1,0,0)"><path fill="rgb(255,255,255)" fill-opacity="1" d=" M38.040000915527344,-0.40299999713897705 C38.040000915527344,20.316999435424805 21.243000030517578,37.11399841308594 0.5230000019073486,37.11399841308594 C-20.19700050354004,37.11399841308594 -36.99300003051758,20.316999435424805 -36.99300003051758,-0.40299999713897705 C-36.99300003051758,-21.12299919128418 -20.19700050354004,-37.91899871826172 0.5230000019073486,-37.91899871826172 C21.243000030517578,-37.91899871826172 38.040000915527344,-21.12299919128418 38.040000915527344,-0.40299999713897705z"></path><path stroke-linecap="round" stroke-linejoin="miter" fill-opacity="0" stroke-miterlimit="10" stroke="rgb(129,218,255)" stroke-opacity="1" stroke-width="4" d=" M38.040000915527344,-0.40299999713897705 C38.040000915527344,20.316999435424805 21.243000030517578,37.11399841308594 0.5230000019073486,37.11399841308594 C-20.19700050354004,37.11399841308594 -36.99300003051758,20.316999435424805 -36.99300003051758,-0.40299999713897705 C-36.99300003051758,-21.12299919128418 -20.19700050354004,-37.91899871826172 0.5230000019073486,-37.91899871826172 C21.243000030517578,-37.91899871826172 38.040000915527344,-21.12299919128418 38.040000915527344,-0.40299999713897705z"></path></g><g opacity="1" transform="matrix(1,0,0,1,0,0)"><path stroke-linecap="round" stroke-linejoin="miter" fill-opacity="0" stroke-miterlimit="10" stroke="rgb(129,218,255)" stroke-opacity="1" stroke-width="4" d=" M-20.81599998474121,-12.89799976348877 C-20.81599998474121,-12.89799976348877 -1.0829999446868896,-25.364999771118164 -1.0829999446868896,-25.364999771118164 C0.06199999898672104,-26.089000701904297 1.9079999923706055,-26.062000274658203 3.0179998874664307,-25.305999755859375 C3.0179998874664307,-25.305999755859375 21.86199951171875,-12.475000381469727 21.86199951171875,-12.475000381469727"></path></g><g opacity="1" transform="matrix(1,0,0,1,0,0)"><path fill="rgb(243,244,244)" fill-opacity="1" d=" M-14.164999961853027,-8.331999778747559 C-14.164999961853027,-8.331999778747559 -14.164999961853027,15.38700008392334 -14.164999961853027,15.38700008392334"></path><path stroke-linecap="round" stroke-linejoin="miter" fill-opacity="0" stroke-miterlimit="10" stroke="rgb(129,218,255)" stroke-opacity="1" stroke-width="4" d=" M-14.164999961853027,-8.331999778747559 C-14.164999961853027,-8.331999778747559 -14.164999961853027,15.38700008392334 -14.164999961853027,15.38700008392334"></path></g><g opacity="1" transform="matrix(1,0,0,1,0,0)"><path fill="rgb(243,244,244)" fill-opacity="1" d=" M-18.368000030517578,21.76099967956543 C-18.368000030517578,21.76099967956543 -15.036999702453613,21.76099967956543 -15.036999702453613,21.76099967956543 C-15.036999702453613,21.76099967956543 15.470999717712402,21.76099967956543 15.470999717712402,21.76099967956543 C15.470999717712402,21.76099967956543 18.802000045776367,21.76099967956543 18.802000045776367,21.76099967956543"></path><path stroke-linecap="round" stroke-linejoin="miter" fill-opacity="0" stroke-miterlimit="10" stroke="rgb(129,218,255)" stroke-opacity="1" stroke-width="4" d=" M-18.368000030517578,21.76099967956543 C-18.368000030517578,21.76099967956543 -15.036999702453613,21.76099967956543 -15.036999702453613,21.76099967956543 C-15.036999702453613,21.76099967956543 15.470999717712402,21.76099967956543 15.470999717712402,21.76099967956543 C15.470999717712402,21.76099967956543 18.802000045776367,21.76099967956543 18.802000045776367,21.76099967956543"></path></g><g opacity="1" transform="matrix(1,0,0,1,0,0)"><path stroke-linecap="round" stroke-linejoin="miter" fill-opacity="0" stroke-miterlimit="10" stroke="rgb(129,218,255)" stroke-opacity="1" stroke-width="4" d=" M-14.164999961853027,15.38700008392334 C-14.164999961853027,15.38700008392334 -14.164999961853027,-7.968999862670898 -14.164999961853027,-7.968999862670898 C-14.164999961853027,-9.343999862670898 -12.800999641418457,-10.468000411987305 -11.133999824523926,-10.468000411987305 C-11.133999824523926,-10.468000411987305 -11.133999824523926,-10.468000411987305 -11.133999824523926,-10.468000411987305 C-9.467000007629395,-10.468000411987305 -8.104000091552734,-9.343999862670898 -8.104000091552734,-7.968999862670898 C-8.104000091552734,-7.968999862670898 -8.104000091552734,-4.638000011444092 -8.104000091552734,-4.638000011444092 C-8.104000091552734,-4.638000011444092 -8.104000091552734,12.887999534606934 -8.104000091552734,12.887999534606934"></path></g><g opacity="1" transform="matrix(1,0,0,1,0,0)"><path stroke-linecap="round" stroke-linejoin="miter" fill-opacity="0" stroke-miterlimit="10" stroke="rgb(129,218,255)" stroke-opacity="1" stroke-width="4" d=" M-8.104000091552734,12.887999534606934 C-8.104000091552734,14.262999534606934 -6.739999771118164,15.38700008392334 -5.072999954223633,15.38700008392334 C-5.072999954223633,15.38700008392334 -5.072999954223633,15.38700008392334 -5.072999954223633,15.38700008392334 C-3.4059998989105225,15.38700008392334 -2.0420000553131104,14.262999534606934 -2.0420000553131104,12.887999534606934 C-2.0420000553131104,12.887999534606934 -2.0789999961853027,-7.97599983215332 -2.0789999961853027,-7.97599983215332 C-2.0789999961853027,-9.35099983215332 -0.7149999737739563,-10.475000381469727 0.9520000219345093,-10.475000381469727 C0.9520000219345093,-10.475000381469727 0.9520000219345093,-10.475000381469727 0.9520000219345093,-10.475000381469727 C2.61899995803833,-10.475000381469727 3.9820001125335693,-9.35099983215332 3.9820001125335693,-7.97599983215332 C3.9820001125335693,-7.97599983215332 3.9820001125335693,-4.644999980926514 3.9820001125335693,-4.644999980926514 C3.9820001125335693,-4.644999980926514 3.9820001125335693,11.77299976348877 3.9820001125335693,11.77299976348877"></path></g><g opacity="1" transform="matrix(1,0,0,1,0,0)"><path stroke-linecap="round" stroke-linejoin="miter" fill-opacity="0" stroke-miterlimit="10" stroke="rgb(129,218,255)" stroke-opacity="1" stroke-width="4" d=" M10.036999702453613,-7.97599983215332 C10.036999702453613,-9.35099983215332 11.401000022888184,-10.475000381469727 13.067999839782715,-10.475000381469727 C13.067999839782715,-10.475000381469727 13.067999839782715,-10.475000381469727 13.067999839782715,-10.475000381469727 C14.734999656677246,-10.475000381469727 16.097999572753906,-9.35099983215332 16.097999572753906,-7.97599983215332 C16.097999572753906,-7.97599983215332 16.097999572753906,-4.644999980926514 16.097999572753906,-4.644999980926514 C16.097999572753906,-4.644999980926514 16.097999572753906,15.131999969482422 16.097999572753906,15.131999969482422"></path></g><g opacity="1" transform="matrix(1,0,0,1,0,0)"><path stroke-linecap="round" stroke-linejoin="miter" fill-opacity="0" stroke-miterlimit="10" stroke="rgb(129,218,255)" stroke-opacity="1" stroke-width="4" d=" M10.036999702453613,-7.97599983215332 C10.036999702453613,-7.97599983215332 10.036999702453613,12.887999534606934 10.036999702453613,12.887999534606934 C10.036999702453613,14.262999534606934 8.67300033569336,15.38700008392334 7.00600004196167,15.38700008392334 C7.00600004196167,15.38700008392334 7.00600004196167,15.38700008392334 7.00600004196167,15.38700008392334 C5.339000225067139,15.38700008392334 3.9749999046325684,14.262999534606934 3.9749999046325684,12.887999534606934 C3.9749999046325684,12.887999534606934 3.9749999046325684,9.557000160217285 3.9749999046325684,9.557000160217285"></path></g></g><g style="display: none;" transform="matrix(-0.27247974276542664,0,0,0.27247974276542664,38,53)" opacity="0.000450000000032702"><g opacity="1" transform="matrix(1,0,0,1,0,0)"><path fill="url(#__lottie_element_44)" fill-opacity="1" d=" M214,0 C214,0 52,0 52,0 C52,0 52,-110 52,-110 C52,-110 214,-110 214,-110 C214,-110 214,0 214,0z"></path></g></g><g style="display: none;" transform="matrix(0.25,0,0,0.25,81.5,53)" opacity="0.0007500000000355556"><g opacity="1" transform="matrix(1,0,0,1,0,0)"><path fill="url(#__lottie_element_48)" fill-opacity="1" d=" M214,0 C214,0 52,0 52,0 C52,0 52,-110 52,-110 C52,-110 214,-110 214,-110 C214,-110 214,0 214,0z"></path></g></g></g></svg>