<svg xmlns="http://www.w3.org/2000/svg" viewBox="0 0 300 200" width="300" height="200" style="width: 100%; height: 100%; transform: translate3d(0px, 0px, 0px);" preserveAspectRatio="xMidYMid meet"><defs><clipPath id="__lottie_element_105"><rect width="300" height="200" x="0" y="0"></rect></clipPath></defs><g clip-path="url(#__lottie_element_105)"><g style="display: block;" transform="matrix(1,0,0,1,149.25,99.625)" opacity="1"><g opacity="1" transform="matrix(1,0,0,1,0,0)"><path fill="rgb(0,0,54)" fill-opacity="1" d=" M14,67 C14,67 35.5,77.5 35.5,77.5"></path><path stroke-linecap="round" stroke-linejoin="round" fill-opacity="0" stroke="rgb(0,0,75)" stroke-opacity="1" stroke-width="4" d=" M14,67 C14,67 35.5,77.5 35.5,77.5"></path></g></g><g style="display: block;" transform="matrix(1,0,0,1,150,100)" opacity="1"><g opacity="1" transform="matrix(1,0,0,1,0,0)"><path fill="rgb(0,0,54)" fill-opacity="1" d=" M24,44.125 C24,44.125 13.5,66 13.5,66"></path><path stroke-linecap="round" stroke-linejoin="round" fill-opacity="0" stroke="rgb(0,0,75)" stroke-opacity="1" stroke-width="4" d=" M24,44.125 C24,44.125 13.5,66 13.5,66"></path></g></g><g style="display: block;" transform="matrix(1,0,0,1,192.1719970703125,101.73999786376953)" opacity="1"><g opacity="1" transform="matrix(1,0,0,1,0,0)"><path stroke-linecap="round" stroke-linejoin="miter" fill-opacity="0" stroke-miterlimit="4" stroke="rgb(0,0,75)" stroke-opacity="1" stroke-width="4" d=" M-15.166999816894531,-63.94900131225586 C4.543000221252441,-55.79899978637695 20.062999725341797,-38.499000549316406 24.96299934387207,-16.14900016784668 C32.92300033569336,20.150999069213867 9.873000144958496,56.01100158691406 -26.53700065612793,63.95100021362305"></path></g></g><g style="display: block;" transform="matrix(1,0,0,1,106.03700256347656,98.26000213623047)" opacity="1"><g opacity="1" transform="matrix(1,0,0,1,0,0)"><path stroke-linecap="round" stroke-linejoin="miter" fill-opacity="0" stroke-miterlimit="4" stroke="rgb(0,0,75)" stroke-opacity="1" stroke-width="4" d=" M15.163000106811523,63.95100021362305 C-4.5370001792907715,55.80099868774414 -20.05699920654297,38.500999450683594 -24.966999053955078,16.150999069213867 C-32.926998138427734,-20.14900016784668 -9.866999626159668,-56.00899887084961 26.533000946044922,-63.94900131225586"></path></g></g><g style="display: block;" transform="matrix(1,0,0,1,150,100)" opacity="1"><g opacity="1" transform="matrix(1,0,0,1,0,0)"><path fill="rgb(0,0,54)" fill-opacity="1" d=" M-16.25,-66.25 C-16.25,-66.25 -26.25,-44.5 -26.25,-44.5"></path><path stroke-linecap="round" stroke-linejoin="round" fill-opacity="0" stroke="rgb(0,0,75)" stroke-opacity="1" stroke-width="4" d=" M-16.25,-66.25 C-16.25,-66.25 -26.25,-44.5 -26.25,-44.5"></path></g></g><g style="display: block;" transform="matrix(1,0,0,1,150.75,100)" opacity="1"><g opacity="1" transform="matrix(1,0,0,1,0,0)"><path fill="rgb(0,0,54)" fill-opacity="1" d=" M-17,-66.25 C-17,-66.25 -38.5,-77.75 -38.5,-77.75"></path><path stroke-linecap="round" stroke-linejoin="round" fill-opacity="0" stroke="rgb(0,0,75)" stroke-opacity="1" stroke-width="4" d=" M-17,-66.25 C-17,-66.25 -38.5,-77.75 -38.5,-77.75"></path></g></g><g style="display: block;" transform="matrix(1,0,0,1,166.0709991455078,115.22599792480469)" opacity="1"><g opacity="1" transform="matrix(1,0,0,1,0,0)"><path stroke-linecap="round" stroke-linejoin="miter" fill-opacity="0" stroke-miterlimit="4" stroke="rgb(94,196,255)" stroke-opacity="1" stroke-width="4" d=" M9.133999824523926,-0.0010000000474974513 C9.133999824523926,5.289000034332275 5.044000148773193,9.569000244140625 0.004000000189989805,9.569000244140625 C-5.046000003814697,9.569000244140625 -9.13599967956543,5.289000034332275 -9.13599967956543,-0.0010000000474974513 C-9.13599967956543,-5.281000137329102 -5.046000003814697,-9.571000099182129 0.004000000189989805,-9.571000099182129 C5.044000148773193,-9.571000099182129 9.133999824523926,-5.281000137329102 9.133999824523926,-0.0010000000474974513z"></path></g></g><g style="display: block;" transform="matrix(1,0,0,1,135.61900329589844,84.77400207519531)" opacity="1"><g opacity="1" transform="matrix(1,0,0,1,0,0)"><path stroke-linecap="round" stroke-linejoin="miter" fill-opacity="0" stroke-miterlimit="4" stroke="rgb(94,196,255)" stroke-opacity="1" stroke-width="4" d=" M9.133999824523926,-0.0010000000474974513 C9.133999824523926,5.289000034332275 5.044000148773193,9.569000244140625 0.004000000189989805,9.569000244140625 C-5.046000003814697,9.569000244140625 -9.13599967956543,5.289000034332275 -9.13599967956543,-0.0010000000474974513 C-9.13599967956543,-5.281000137329102 -5.046000003814697,-9.571000099182129 0.004000000189989805,-9.571000099182129 C5.044000148773193,-9.571000099182129 9.133999824523926,-5.281000137329102 9.133999824523926,-0.0010000000474974513z"></path></g></g><g style="display: block;" transform="matrix(1,0,0,1,151.27999877929688,100)" opacity="1"><g opacity="1" transform="matrix(1,0,0,1,0,0)"><path stroke-linecap="round" stroke-linejoin="miter" fill-opacity="0" stroke-miterlimit="4" stroke="rgb(94,196,255)" stroke-opacity="1" stroke-width="4" d=" M24.792999267578125,-24.797000885009766 C24.792999267578125,-24.797000885009766 -24.797000885009766,24.792999267578125 -24.797000885009766,24.792999267578125"></path></g></g></g></svg>