<svg xmlns="http://www.w3.org/2000/svg" viewBox="0 0 300 200" width="300" height="200" style="width: 100%; height: 100%; transform: translate3d(0px, 0px, 0px);" preserveAspectRatio="xMidYMid meet"><defs><clipPath id="__lottie_element_160"><rect width="300" height="200" x="0" y="0"></rect></clipPath></defs><g clip-path="url(#__lottie_element_160)"><g style="display: block;" transform="matrix(1,0,0,-1,110.25,128.5)" opacity="1"><g opacity="1" transform="matrix(0.258819043636322,0.9659258127212524,-0.9659258127212524,0.258819043636322,0,0)"><path stroke-linecap="round" stroke-linejoin="round" fill-opacity="0" stroke="rgb(0,0,54)" stroke-opacity="1" stroke-width="4" d=" M11.5,-13.5 C11.5,-13.5 -9.25,2.5 -9.25,2.5 C-9.25,2.5 -13.75,7 -9.25,13.5"></path></g></g><g style="display: block;" transform="matrix(1,0,0,1,150,99.5)" opacity="1"><g opacity="1" transform="matrix(1,0,0,1,0,0)"><path stroke-linecap="round" stroke-linejoin="miter" fill-opacity="0" stroke-miterlimit="4" stroke="rgb(0,0,54)" stroke-opacity="1" stroke-width="4" d=" M36.810001373291016,-54.16999816894531 C34.34000015258789,-55.849998474121094 31.75,-57.36000061035156 29.06999969482422,-58.70000076293945 C17.200000762939453,-64.58999633789062 3.4000000953674316,-66.95999908447266 -10.829999923706055,-64.58999633789062 C-43.279998779296875,-59.209999084472656 -66.98999786376953,-29.860000610351562 -65.43000030517578,3 C-63.540000915527344,42.54999923706055 -27.559999465942383,71.33999633789062 11.449999809265137,64.48999786376953 C43.56999969482422,58.84000015258789 66.93000030517578,29.700000762939453 65.43000030517578,-2.890000104904175 C64.9000015258789,-14.399999618530273 61.47999954223633,-25.010000228881836 55.93000030517578,-34.09000015258789 C54.09000015258789,-37.119998931884766 49.720001220703125,-37.2599983215332 47.63999938964844,-34.380001068115234 C47.63999938964844,-34.380001068115234 28,-19 28,-19 M36.810001373291016,-54.16999816894531 C36.810001373291016,-54.16999816894531 36.810001373291016,-54.16999816894531 36.810001373291016,-54.16999816894531"></path></g></g><g style="display: block;" transform="matrix(1,0,0,1,152.0279998779297,99)" opacity="1"><g opacity="0.9999999781905956" transform="matrix(1,0,0,1,0,0)"><path fill="rgb(94,196,255)" fill-opacity="1" d=" M-16.527999877929688,13.4399995803833 C-16.527999877929688,13.4399995803833 -11.977999687194824,10.739999771118164 -11.977999687194824,10.739999771118164 C-10.057999610900879,17.34000015258789 -7.188000202178955,23.549999237060547 0.5619999766349792,23.549999237060547 C6.622000217437744,23.549999237060547 11.022000312805176,19.889999389648438 11.022000312805176,12.329999923706055 C11.022000312805176,-1.5099999904632568 -13.097999572753906,1.9900000095367432 -13.097999572753906,-14.800000190734863 C-13.097999572753906,-22.43000030517578 -8.067999839782715,-27.440000534057617 -1.8380000591278076,-28.31999969482422 C-1.8380000591278076,-28.31999969482422 -1.8380000591278076,-35 -1.8380000591278076,-35 C-1.8380000591278076,-35 2.9519999027252197,-35 2.9519999027252197,-35 C2.9519999027252197,-35 2.9519999027252197,-28.239999771118164 2.9519999027252197,-28.239999771118164 C8.781999588012695,-27.360000610351562 11.10200023651123,-23.940000534057617 13.491999626159668,-19.889999389648438 C13.491999626159668,-19.889999389648438 9.182000160217285,-17.18000030517578 9.182000160217285,-17.18000030517578 C6.552000045776367,-22.190000534057617 3.3519999980926514,-23.549999237060547 -0.07800000160932541,-23.549999237060547 C-5.26800012588501,-23.549999237060547 -7.828000068664551,-19.329999923706055 -7.828000068664551,-15.430000305175781 C-7.828000068664551,-1.8300000429153442 16.531999588012695,-6.199999809265137 16.531999588012695,12.170000076293945 C16.531999588012695,21.31999969482422 10.781999588012695,27.440000534057617 2.9519999027252197,28.479999542236328 C2.9519999027252197,28.479999542236328 2.9519999027252197,35 2.9519999027252197,35 C2.9519999027252197,35 -1.8380000591278076,35 -1.8380000591278076,35 C-1.8380000591278076,35 -1.8380000591278076,28.479999542236328 -1.8380000591278076,28.479999542236328 C-9.817999839782715,27.520000457763672 -14.847999572753906,21.399999618530273 -16.527999877929688,13.4399995803833z"></path></g></g></g></svg>