<svg xmlns="http://www.w3.org/2000/svg" viewBox="0 0 120 120" width="120" height="120" style="width: 100%; height: 100%; transform: translate3d(0px, 0px, 0px);" preserveAspectRatio="xMidYMid meet"><defs><clipPath id="__lottie_element_85"><rect width="120" height="120" x="0" y="0"></rect></clipPath></defs><g clip-path="url(#__lottie_element_85)"><g style="display: block;" transform="matrix(1,0,0,1,226,230.5)" opacity="1"><g opacity="1" transform="matrix(1,0,0,1,0,0)"><path stroke-linecap="round" stroke-linejoin="bevel" fill-opacity="0" stroke="rgb(0,0,75)" stroke-opacity="1" stroke-width="3" d=" M-138.30799865722656,-192.5279998779297"></path></g><g opacity="1" transform="matrix(1,0,0,1,0,0)"><path stroke-linecap="round" stroke-linejoin="bevel" fill-opacity="0" stroke="rgb(0,0,75)" stroke-opacity="1" stroke-width="3" d=" M-138.30799865722656,-192.5279998779297 C-139.33399963378906,-195.86000061035156 -140.0780029296875,-206.34100341796875 -143.1649932861328,-210.70700073242188 C-143.5260009765625,-211.21800231933594 -144.9080047607422,-211.94700622558594 -145.4969940185547,-211.76100158691406 C-150.39999389648438,-210.2100067138672 -141.0540008544922,-193.78700256347656 -155.2259979248047,-195.91600036621094 C-157.42100524902344,-196.24600219726562 -159.7530059814453,-196.72900390625 -161.53199768066406,-198.0570068359375 C-162.52499389648438,-198.79800415039062 -163.14100646972656,-199.44700622558594 -163.3459930419922,-200.66900634765625 C-163.47799682617188,-201.45899963378906 -162.60699462890625,-203.1490020751953 -162.5189971923828,-203.94500732421875 C-161.97000122070312,-206.54800415039062 -162.34500122070312,-207.95899963378906 -163.64300537109375,-208.17999267578125 C-165.58999633789062,-208.51199340820312 -171.15699768066406,-209.08900451660156 -175.7030029296875,-207.7989959716797 C-177.89300537109375,-207.17799377441406 -177.23899841308594,-203.97799682617188 -178.90899658203125,-201.12600708007812 C-179.87100219726562,-199.48300170898438 -183.1929931640625,-204.31100463867188 -187.94900512695312,-199.79800415039062 C-191.05999755859375,-196.8459930419922 -194.8040008544922,-187.1790008544922 -197.60000610351562,-185.58900451660156 C-208.2519989013672,-179.5330047607422 -211.08099365234375,-183.51499938964844 -212.27499389648438,-172.3719940185547 C-213.3300018310547,-162.5240020751953 -207.51100158691406,-159.6909942626953 -203.8249969482422,-152.04200744628906 C-203.08700561523438,-150.50999450683594 -203.63699340820312,-148.5189971923828 -202.78399658203125,-147.0489959716797 C-202.3800048828125,-146.3520050048828 -201.29299926757812,-146.26100158691406 -200.48800659179688,-146.29100036621094 C-198.7790069580078,-146.35499572753906 -197.0399932861328,-146.66299438476562 -195.46200561523438,-147.322998046875 C-187.87899780273438,-150.49400329589844 -180.83599853515625,-162.00599670410156 -172.39500427246094,-161.13999938964844 C-165.2480010986328,-160.40699768066406 -167.49899291992188,-156.5659942626953 -161.68499755859375,-152.4720001220703 C-159.7689971923828,-151.1230010986328 -156.73699951171875,-154.41000366210938 -155.2259979248047,-152.4720001220703 C-153.9770050048828,-150.8699951171875 -153.2259979248047,-148.20899963378906 -152.10499572753906,-146.51400756835938 C-147.6269989013672,-139.74200439453125 -146.26600646972656,-144.64999389648438 -140.34100341796875,-144.40199279785156 C-137.36199951171875,-144.27699279785156 -133.55299377441406,-139.3520050048828 -130.84500122070312,-144.8820037841797 C-130.322998046875,-145.94900512695312 -129.61300659179688,-148.4199981689453 -129.2530059814453,-149.552001953125 C-128.20599365234375,-152.84500122070312 -126.98500061035156,-154.36300659179688 -125.7300033569336,-157.58299255371094 C-124.33100128173828,-161.17100524902344 -123.13300323486328,-164.87399291992188 -122.47899627685547,-168.66900634765625 C-122.13700103759766,-170.6540069580078 -122.32599639892578,-172.74200439453125 -122.77999877929688,-174.70399475097656 C-123.38300323486328,-177.31100463867188 -124.71199798583984,-179.30299377441406 -126.35800170898438,-180.97900390625"></path></g></g><g style="display: block;" transform="matrix(1,0,0,1,226,230.5)" opacity="1"><g opacity="1" transform="matrix(1,0,0,1,0,0)"><path stroke-linecap="round" stroke-linejoin="round" fill-opacity="0" stroke="rgb(77,177,255)" stroke-opacity="1" stroke-width="3.4" d=" M-160.64599609375,-177.02699279785156 C-160.64599609375,-177.02699279785156 -151.76800537109375,-168.1490020751953 -151.76800537109375,-168.1490020751953 C-151.76800537109375,-168.1490020751953 -122.72599792480469,-197.1909942626953 -122.72599792480469,-197.1909942626953"></path></g></g><g style="display: block;" transform="matrix(1,0,0,1,60,60)" opacity="1"><g opacity="1" transform="matrix(1,0,0,1,0,0)"><path stroke-linecap="round" stroke-linejoin="bevel" fill-opacity="0" stroke="rgb(0,4,93)" stroke-opacity="1" stroke-width="3" d=" M27.691999435424805,-22.027999877929688"></path></g></g><g style="display: block;" transform="matrix(1,0,0,1,60,60.000003814697266)" opacity="1"><g opacity="1" transform="matrix(1,0,0,1,0,0)"><path stroke-linecap="round" stroke-linejoin="round" fill-opacity="0" stroke="rgb(0,4,93)" stroke-opacity="1" stroke-width="3" d=" M25.764999389648438,35.47600173950195 C21.503000259399414,35.28799819946289 19.549999237060547,36.7239990234375 25.764999389648438,42.095001220703125 C28.656999588012695,44.59400177001953 37.27299880981445,35.553001403808594 28.073999404907227,35.47600173950195 C28.073999404907227,35.47600173950195 25.764999389648438,35.47600173950195 25.764999389648438,35.47600173950195z"></path></g></g></g></svg>