<svg xmlns="http://www.w3.org/2000/svg" viewBox="0 0 120 120" width="120" height="120" style="width: 100%; height: 100%; transform: translate3d(0px, 0px, 0px);" preserveAspectRatio="xMidYMid meet"><defs><clipPath id="__lottie_element_77"><rect width="120" height="120" x="0" y="0"></rect></clipPath></defs><g clip-path="url(#__lottie_element_77)"><g style="display: block;" transform="matrix(1,0,0,1,-71,368)" opacity="1"><g opacity="1" transform="matrix(1,0,0,1,0,0)"><path stroke-linecap="round" stroke-linejoin="miter" fill-opacity="0" stroke-miterlimit="10" stroke="rgb(77,177,255)" stroke-opacity="1" stroke-width="3" d=" M88.86199951171875,-328.63800048828125 C88.86199951171875,-328.63800048828125 88.86199951171875,-336.468994140625 88.86199951171875,-336.468994140625 C88.86199951171875,-340.38299560546875 92.03500366210938,-343.5559997558594 95.9489974975586,-343.5559997558594 C95.9489974975586,-343.5559997558594 163.8820037841797,-343.5559997558594 163.8820037841797,-343.5559997558594 C167.79600524902344,-343.5559997558594 170.968994140625,-340.38299560546875 170.968994140625,-336.468994140625 C170.968994140625,-336.468994140625 170.968994140625,-328.63800048828125 170.968994140625,-328.63800048828125 C170.968994140625,-324.7250061035156 88.86199951171875,-324.7250061035156 88.86199951171875,-328.63800048828125z"></path></g><g opacity="1" transform="matrix(1,0,0,1,0,0)"><path stroke-linecap="round" stroke-linejoin="miter" fill-opacity="0" stroke-miterlimit="10" stroke="rgb(0,0,75)" stroke-opacity="1" stroke-width="3" d=" M163.8820037841797,-266.552001953125 C163.8820037841797,-266.552001953125 95.9489974975586,-266.552001953125 95.9489974975586,-266.552001953125 C92.03500366210938,-266.552001953125 88.86199951171875,-269.7250061035156 88.86199951171875,-273.63800048828125 C88.86199951171875,-273.63800048828125 88.86199951171875,-336.468994140625 88.86199951171875,-336.468994140625 C88.86199951171875,-340.38299560546875 92.03500366210938,-343.5559997558594 95.9489974975586,-343.5559997558594 C95.9489974975586,-343.5559997558594 163.8820037841797,-343.5559997558594 163.8820037841797,-343.5559997558594 C167.79600524902344,-343.5559997558594 170.968994140625,-340.38299560546875 170.968994140625,-336.468994140625 C170.968994140625,-336.468994140625 170.968994140625,-273.63800048828125 170.968994140625,-273.63800048828125 C170.968994140625,-269.7250061035156 167.79600524902344,-266.552001953125 163.8820037841797,-266.552001953125z"></path></g></g><g style="display: block;" transform="matrix(1,0,0,1,-71,368)" opacity="1"><g opacity="1" transform="matrix(1,0,0,1,0,0)"><path fill="rgb(255,255,255)" fill-opacity="1" d=" M108.59200286865234,-333.1759948730469 C108.59200286865234,-333.1759948730469 108.59200286865234,-333.1759948730469 108.59200286865234,-333.1759948730469 C106.01000213623047,-333.1759948730469 103.89700317382812,-335.28900146484375 103.89700317382812,-337.8710021972656 C103.89700317382812,-337.8710021972656 103.89700317382812,-350.9100036621094 103.89700317382812,-350.9100036621094 C103.89700317382812,-353.49200439453125 106.01000213623047,-355.6050109863281 108.59200286865234,-355.6050109863281 C108.59200286865234,-355.6050109863281 108.59200286865234,-355.6050109863281 108.59200286865234,-355.6050109863281 C111.17400360107422,-355.6050109863281 113.28700256347656,-353.49200439453125 113.28700256347656,-350.9100036621094 C113.28700256347656,-350.9100036621094 113.28700256347656,-337.8710021972656 113.28700256347656,-337.8710021972656 C113.28700256347656,-335.28900146484375 111.17400360107422,-333.1759948730469 108.59200286865234,-333.1759948730469z"></path><path stroke-linecap="butt" stroke-linejoin="miter" fill-opacity="0" stroke-miterlimit="10" stroke="rgb(0,0,75)" stroke-opacity="1" stroke-width="2.4" d=" M108.59200286865234,-333.1759948730469 C108.59200286865234,-333.1759948730469 108.59200286865234,-333.1759948730469 108.59200286865234,-333.1759948730469 C106.01000213623047,-333.1759948730469 103.89700317382812,-335.28900146484375 103.89700317382812,-337.8710021972656 C103.89700317382812,-337.8710021972656 103.89700317382812,-350.9100036621094 103.89700317382812,-350.9100036621094 C103.89700317382812,-353.49200439453125 106.01000213623047,-355.6050109863281 108.59200286865234,-355.6050109863281 C108.59200286865234,-355.6050109863281 108.59200286865234,-355.6050109863281 108.59200286865234,-355.6050109863281 C111.17400360107422,-355.6050109863281 113.28700256347656,-353.49200439453125 113.28700256347656,-350.9100036621094 C113.28700256347656,-350.9100036621094 113.28700256347656,-337.8710021972656 113.28700256347656,-337.8710021972656 C113.28700256347656,-335.28900146484375 111.17400360107422,-333.1759948730469 108.59200286865234,-333.1759948730469z"></path></g></g><g style="display: block;" transform="matrix(1,0,0,1,-71,368)" opacity="1"><g opacity="1" transform="matrix(1,0,0,1,0,0)"><path fill="rgb(255,255,255)" fill-opacity="1" d=" M153.8000030517578,-333.1759948730469 C153.8000030517578,-333.1759948730469 153.8000030517578,-333.1759948730469 153.8000030517578,-333.1759948730469 C151.21800231933594,-333.1759948730469 149.10499572753906,-335.28900146484375 149.10499572753906,-337.8710021972656 C149.10499572753906,-337.8710021972656 149.10499572753906,-350.9100036621094 149.10499572753906,-350.9100036621094 C149.10499572753906,-353.49200439453125 151.21800231933594,-355.6050109863281 153.8000030517578,-355.6050109863281 C153.8000030517578,-355.6050109863281 153.8000030517578,-355.6050109863281 153.8000030517578,-355.6050109863281 C156.3820037841797,-355.6050109863281 158.4949951171875,-353.49200439453125 158.4949951171875,-350.9100036621094 C158.4949951171875,-350.9100036621094 158.4949951171875,-337.8710021972656 158.4949951171875,-337.8710021972656 C158.4949951171875,-335.28900146484375 156.3820037841797,-333.1759948730469 153.8000030517578,-333.1759948730469z"></path><path stroke-linecap="butt" stroke-linejoin="miter" fill-opacity="0" stroke-miterlimit="10" stroke="rgb(0,0,75)" stroke-opacity="1" stroke-width="2.4" d=" M153.8000030517578,-333.1759948730469 C153.8000030517578,-333.1759948730469 153.8000030517578,-333.1759948730469 153.8000030517578,-333.1759948730469 C151.21800231933594,-333.1759948730469 149.10499572753906,-335.28900146484375 149.10499572753906,-337.8710021972656 C149.10499572753906,-337.8710021972656 149.10499572753906,-350.9100036621094 149.10499572753906,-350.9100036621094 C149.10499572753906,-353.49200439453125 151.21800231933594,-355.6050109863281 153.8000030517578,-355.6050109863281 C153.8000030517578,-355.6050109863281 153.8000030517578,-355.6050109863281 153.8000030517578,-355.6050109863281 C156.3820037841797,-355.6050109863281 158.4949951171875,-353.49200439453125 158.4949951171875,-350.9100036621094 C158.4949951171875,-350.9100036621094 158.4949951171875,-337.8710021972656 158.4949951171875,-337.8710021972656 C158.4949951171875,-335.28900146484375 156.3820037841797,-333.1759948730469 153.8000030517578,-333.1759948730469z"></path></g></g><g style="display: block;" transform="matrix(1,0,0,1,-16,43)" opacity="0.4"><g opacity="1" transform="matrix(1,0,0,1,0,0)"><path fill="rgb(77,177,255)" fill-opacity="1" d=" M56.95899963378906,18.437000274658203 C56.95899963378906,18.437000274658203 43.61399841308594,18.437000274658203 43.61399841308594,18.437000274658203 C42.08000183105469,18.437000274658203 40.82600021362305,17.183000564575195 40.82600021362305,15.64900016784668 C40.82600021362305,15.64900016784668 40.82600021362305,8.175999641418457 40.82600021362305,8.175999641418457 C40.82600021362305,6.642000198364258 42.08000183105469,5.388000011444092 43.61399841308594,5.388000011444092 C43.61399841308594,5.388000011444092 56.95899963378906,5.388000011444092 56.95899963378906,5.388000011444092 C58.49300003051758,5.388000011444092 59.74800109863281,6.642000198364258 59.74800109863281,8.175999641418457 C59.74800109863281,8.175999641418457 59.74800109863281,15.64900016784668 59.74800109863281,15.64900016784668 C59.74800109863281,17.183000564575195 58.49300003051758,18.437000274658203 56.95899963378906,18.437000274658203z"></path></g></g><g style="display: block;" transform="matrix(1,0,0,1,-16,43)" opacity="0.4"><g opacity="1" transform="matrix(1,0,0,1,0,0)"><path fill="rgb(77,177,255)" fill-opacity="1" d=" M81.10099792480469,18.437000274658203 C81.10099792480469,18.437000274658203 67.75599670410156,18.437000274658203 67.75599670410156,18.437000274658203 C66.22200012207031,18.437000274658203 64.96700286865234,17.183000564575195 64.96700286865234,15.64900016784668 C64.96700286865234,15.64900016784668 64.96700286865234,8.175999641418457 64.96700286865234,8.175999641418457 C64.96700286865234,6.642000198364258 66.22200012207031,5.388000011444092 67.75599670410156,5.388000011444092 C67.75599670410156,5.388000011444092 81.10099792480469,5.388000011444092 81.10099792480469,5.388000011444092 C82.63500213623047,5.388000011444092 83.88899993896484,6.642000198364258 83.88899993896484,8.175999641418457 C83.88899993896484,8.175999641418457 83.88899993896484,15.64900016784668 83.88899993896484,15.64900016784668 C83.88899993896484,17.183000564575195 82.63500213623047,18.437000274658203 81.10099792480469,18.437000274658203z"></path></g></g><g style="display: block;" transform="matrix(1,0,0,1,-16,43)" opacity="0.4"><g opacity="1" transform="matrix(1,0,0,1,0,0)"><path fill="rgb(77,177,255)" fill-opacity="1" d=" M105.24299621582031,18.437000274658203 C105.24299621582031,18.437000274658203 91.89700317382812,18.437000274658203 91.89700317382812,18.437000274658203 C90.36299896240234,18.437000274658203 89.10900115966797,17.183000564575195 89.10900115966797,15.64900016784668 C89.10900115966797,15.64900016784668 89.10900115966797,8.175999641418457 89.10900115966797,8.175999641418457 C89.10900115966797,6.642000198364258 90.36299896240234,5.388000011444092 91.89700317382812,5.388000011444092 C91.89700317382812,5.388000011444092 105.24299621582031,5.388000011444092 105.24299621582031,5.388000011444092 C106.7770004272461,5.388000011444092 108.03099822998047,6.642000198364258 108.03099822998047,8.175999641418457 C108.03099822998047,8.175999641418457 108.03099822998047,15.64900016784668 108.03099822998047,15.64900016784668 C108.03099822998047,17.183000564575195 106.7770004272461,18.437000274658203 105.24299621582031,18.437000274658203z"></path></g></g><g style="display: block;" transform="matrix(1,0,0,1,-16,43)" opacity="0.4"><g opacity="1" transform="matrix(1,0,0,1,0,0)"><path fill="rgb(77,177,255)" fill-opacity="1" d=" M57.106998443603516,34.73400115966797 C57.106998443603516,34.73400115966797 43.762001037597656,34.73400115966797 43.762001037597656,34.73400115966797 C42.22800064086914,34.73400115966797 40.9739990234375,33.479000091552734 40.9739990234375,31.94499969482422 C40.9739990234375,31.94499969482422 40.9739990234375,24.472000122070312 40.9739990234375,24.472000122070312 C40.9739990234375,22.937999725341797 42.22800064086914,21.68400001525879 43.762001037597656,21.68400001525879 C43.762001037597656,21.68400001525879 57.106998443603516,21.68400001525879 57.106998443603516,21.68400001525879 C58.64099884033203,21.68400001525879 59.895999908447266,22.937999725341797 59.895999908447266,24.472000122070312 C59.895999908447266,24.472000122070312 59.895999908447266,31.94499969482422 59.895999908447266,31.94499969482422 C59.895999908447266,33.479000091552734 58.64099884033203,34.73400115966797 57.106998443603516,34.73400115966797z"></path></g></g><g style="display: block;" transform="matrix(1,0,0,1,-15.999996185302734,43)" opacity="0.4"><g opacity="1" transform="matrix(1,0,0,1,0,0)"><path fill="rgb(77,177,255)" fill-opacity="1" d=" M81.2490005493164,34.73400115966797 C81.2490005493164,34.73400115966797 67.90399932861328,34.73400115966797 67.90399932861328,34.73400115966797 C66.37000274658203,34.73400115966797 65.11499786376953,33.479000091552734 65.11499786376953,31.94499969482422 C65.11499786376953,31.94499969482422 65.11499786376953,24.472000122070312 65.11499786376953,24.472000122070312 C65.11499786376953,22.937999725341797 66.37000274658203,21.68400001525879 67.90399932861328,21.68400001525879 C67.90399932861328,21.68400001525879 81.2490005493164,21.68400001525879 81.2490005493164,21.68400001525879 C82.78299713134766,21.68400001525879 84.03700256347656,22.937999725341797 84.03700256347656,24.472000122070312 C84.03700256347656,24.472000122070312 84.03700256347656,31.94499969482422 84.03700256347656,31.94499969482422 C84.03700256347656,33.479000091552734 82.78299713134766,34.73400115966797 81.2490005493164,34.73400115966797z"></path></g></g><g style="display: block;" transform="matrix(1,0,0,1,-16,43)" opacity="0.4"><g opacity="1" transform="matrix(1,0,0,1,0,0)"><path fill="rgb(77,177,255)" fill-opacity="1" d=" M105.39099884033203,34.73400115966797 C105.39099884033203,34.73400115966797 92.04499816894531,34.73400115966797 92.04499816894531,34.73400115966797 C90.51100158691406,34.73400115966797 89.25700378417969,33.479000091552734 89.25700378417969,31.94499969482422 C89.25700378417969,31.94499969482422 89.25700378417969,24.472000122070312 89.25700378417969,24.472000122070312 C89.25700378417969,22.937999725341797 90.51100158691406,21.68400001525879 92.04499816894531,21.68400001525879 C92.04499816894531,21.68400001525879 105.39099884033203,21.68400001525879 105.39099884033203,21.68400001525879 C106.92500305175781,21.68400001525879 108.17900085449219,22.937999725341797 108.17900085449219,24.472000122070312 C108.17900085449219,24.472000122070312 108.17900085449219,31.94499969482422 108.17900085449219,31.94499969482422 C108.17900085449219,33.479000091552734 106.92500305175781,34.73400115966797 105.39099884033203,34.73400115966797z"></path></g></g><g style="display: block;" transform="matrix(1,0,0,1,-16,43)" opacity="0.4"><g opacity="1" transform="matrix(1,0,0,1,0,0)"><path fill="rgb(77,177,255)" fill-opacity="1" d=" M57.106998443603516,51.37200164794922 C57.106998443603516,51.37200164794922 43.762001037597656,51.37200164794922 43.762001037597656,51.37200164794922 C42.22800064086914,51.37200164794922 40.9739990234375,50.11800003051758 40.9739990234375,48.58399963378906 C40.9739990234375,48.58399963378906 40.9739990234375,41.111000061035156 40.9739990234375,41.111000061035156 C40.9739990234375,39.57699966430664 42.22800064086914,38.321998596191406 43.762001037597656,38.321998596191406 C43.762001037597656,38.321998596191406 57.106998443603516,38.321998596191406 57.106998443603516,38.321998596191406 C58.64099884033203,38.321998596191406 59.895999908447266,39.57699966430664 59.895999908447266,41.111000061035156 C59.895999908447266,41.111000061035156 59.895999908447266,48.58399963378906 59.895999908447266,48.58399963378906 C59.895999908447266,50.11800003051758 58.64099884033203,51.37200164794922 57.106998443603516,51.37200164794922z"></path></g></g><g style="display: block;" transform="matrix(1,0,0,1,-15.999996185302734,43)" opacity="0.4"><g opacity="1" transform="matrix(1,0,0,1,0,0)"><path fill="rgb(77,177,255)" fill-opacity="1" d=" M81.2490005493164,51.37200164794922 C81.2490005493164,51.37200164794922 67.90399932861328,51.37200164794922 67.90399932861328,51.37200164794922 C66.37000274658203,51.37200164794922 65.11499786376953,50.11800003051758 65.11499786376953,48.58399963378906 C65.11499786376953,48.58399963378906 65.11499786376953,41.111000061035156 65.11499786376953,41.111000061035156 C65.11499786376953,39.57699966430664 66.37000274658203,38.321998596191406 67.90399932861328,38.321998596191406 C67.90399932861328,38.321998596191406 81.2490005493164,38.321998596191406 81.2490005493164,38.321998596191406 C82.78299713134766,38.321998596191406 84.03700256347656,39.57699966430664 84.03700256347656,41.111000061035156 C84.03700256347656,41.111000061035156 84.03700256347656,48.58399963378906 84.03700256347656,48.58399963378906 C84.03700256347656,50.11800003051758 82.78299713134766,51.37200164794922 81.2490005493164,51.37200164794922z"></path></g></g><g style="display: block;" transform="matrix(1,0,0,1,-16,43)" opacity="0.4"><g opacity="1" transform="matrix(1,0,0,1,0,0)"><path fill="rgb(77,177,255)" fill-opacity="1" d=" M105.39099884033203,51.37200164794922 C105.39099884033203,51.37200164794922 92.04499816894531,51.37200164794922 92.04499816894531,51.37200164794922 C90.51100158691406,51.37200164794922 89.25700378417969,50.11800003051758 89.25700378417969,48.58399963378906 C89.25700378417969,48.58399963378906 89.25700378417969,41.111000061035156 89.25700378417969,41.111000061035156 C89.25700378417969,39.57699966430664 90.51100158691406,38.321998596191406 92.04499816894531,38.321998596191406 C92.04499816894531,38.321998596191406 105.39099884033203,38.321998596191406 105.39099884033203,38.321998596191406 C106.92500305175781,38.321998596191406 108.17900085449219,39.57699966430664 108.17900085449219,41.111000061035156 C108.17900085449219,41.111000061035156 108.17900085449219,48.58399963378906 108.17900085449219,48.58399963378906 C108.17900085449219,50.11800003051758 106.92500305175781,51.37200164794922 105.39099884033203,51.37200164794922z"></path></g></g><g style="display: block;" transform="matrix(1,0,0,1,-15.999996185302734,43)" opacity="1"><g opacity="1" transform="matrix(1,0,0,1,0,0)"><path fill="rgb(77,177,255)" fill-opacity="1" d=" M81.2490005493164,34.73400115966797 C81.2490005493164,34.73400115966797 67.90399932861328,34.73400115966797 67.90399932861328,34.73400115966797 C66.37000274658203,34.73400115966797 65.11499786376953,33.479000091552734 65.11499786376953,31.94499969482422 C65.11499786376953,31.94499969482422 65.11499786376953,24.472000122070312 65.11499786376953,24.472000122070312 C65.11499786376953,22.937999725341797 66.37000274658203,21.68400001525879 67.90399932861328,21.68400001525879 C67.90399932861328,21.68400001525879 81.2490005493164,21.68400001525879 81.2490005493164,21.68400001525879 C82.78299713134766,21.68400001525879 84.03700256347656,22.937999725341797 84.03700256347656,24.472000122070312 C84.03700256347656,24.472000122070312 84.03700256347656,31.94499969482422 84.03700256347656,31.94499969482422 C84.03700256347656,33.479000091552734 82.78299713134766,34.73400115966797 81.2490005493164,34.73400115966797z"></path></g></g><g style="display: block;" transform="matrix(1,0,0,1,-16,43)" opacity="1"><g opacity="1" transform="matrix(1,0,0,1,0,0)"><path fill="rgb(77,177,255)" fill-opacity="1" d=" M57.106998443603516,34.73400115966797 C57.106998443603516,34.73400115966797 43.762001037597656,34.73400115966797 43.762001037597656,34.73400115966797 C42.22800064086914,34.73400115966797 40.9739990234375,33.479000091552734 40.9739990234375,31.94499969482422 C40.9739990234375,31.94499969482422 40.9739990234375,24.472000122070312 40.9739990234375,24.472000122070312 C40.9739990234375,22.937999725341797 42.22800064086914,21.68400001525879 43.762001037597656,21.68400001525879 C43.762001037597656,21.68400001525879 57.106998443603516,21.68400001525879 57.106998443603516,21.68400001525879 C58.64099884033203,21.68400001525879 59.895999908447266,22.937999725341797 59.895999908447266,24.472000122070312 C59.895999908447266,24.472000122070312 59.895999908447266,31.94499969482422 59.895999908447266,31.94499969482422 C59.895999908447266,33.479000091552734 58.64099884033203,34.73400115966797 57.106998443603516,34.73400115966797z"></path></g></g><g style="display: block;" transform="matrix(1,0,0,1,-16,43)" opacity="1"><g opacity="1" transform="matrix(1,0,0,1,0,0)"><path fill="rgb(77,177,255)" fill-opacity="1" d=" M105.24299621582031,18.437000274658203 C105.24299621582031,18.437000274658203 91.89700317382812,18.437000274658203 91.89700317382812,18.437000274658203 C90.36299896240234,18.437000274658203 89.10900115966797,17.183000564575195 89.10900115966797,15.64900016784668 C89.10900115966797,15.64900016784668 89.10900115966797,8.175999641418457 89.10900115966797,8.175999641418457 C89.10900115966797,6.642000198364258 90.36299896240234,5.388000011444092 91.89700317382812,5.388000011444092 C91.89700317382812,5.388000011444092 105.24299621582031,5.388000011444092 105.24299621582031,5.388000011444092 C106.7770004272461,5.388000011444092 108.03099822998047,6.642000198364258 108.03099822998047,8.175999641418457 C108.03099822998047,8.175999641418457 108.03099822998047,15.64900016784668 108.03099822998047,15.64900016784668 C108.03099822998047,17.183000564575195 106.7770004272461,18.437000274658203 105.24299621582031,18.437000274658203z"></path></g></g><g style="display: block;" transform="matrix(1,0,0,1,-16,43)" opacity="1"><g opacity="1" transform="matrix(1,0,0,1,0,0)"><path fill="rgb(77,177,255)" fill-opacity="1" d=" M81.10099792480469,18.437000274658203 C81.10099792480469,18.437000274658203 67.75599670410156,18.437000274658203 67.75599670410156,18.437000274658203 C66.22200012207031,18.437000274658203 64.96700286865234,17.183000564575195 64.96700286865234,15.64900016784668 C64.96700286865234,15.64900016784668 64.96700286865234,8.175999641418457 64.96700286865234,8.175999641418457 C64.96700286865234,6.642000198364258 66.22200012207031,5.388000011444092 67.75599670410156,5.388000011444092 C67.75599670410156,5.388000011444092 81.10099792480469,5.388000011444092 81.10099792480469,5.388000011444092 C82.63500213623047,5.388000011444092 83.88899993896484,6.642000198364258 83.88899993896484,8.175999641418457 C83.88899993896484,8.175999641418457 83.88899993896484,15.64900016784668 83.88899993896484,15.64900016784668 C83.88899993896484,17.183000564575195 82.63500213623047,18.437000274658203 81.10099792480469,18.437000274658203z"></path></g></g><g style="display: block;" transform="matrix(1,0,0,1,-16,43)" opacity="1"><g opacity="1" transform="matrix(1,0,0,1,0,0)"><path fill="rgb(77,177,255)" fill-opacity="1" d=" M56.95899963378906,18.437000274658203 C56.95899963378906,18.437000274658203 43.61399841308594,18.437000274658203 43.61399841308594,18.437000274658203 C42.08000183105469,18.437000274658203 40.82600021362305,17.183000564575195 40.82600021362305,15.64900016784668 C40.82600021362305,15.64900016784668 40.82600021362305,8.175999641418457 40.82600021362305,8.175999641418457 C40.82600021362305,6.642000198364258 42.08000183105469,5.388000011444092 43.61399841308594,5.388000011444092 C43.61399841308594,5.388000011444092 56.95899963378906,5.388000011444092 56.95899963378906,5.388000011444092 C58.49300003051758,5.388000011444092 59.74800109863281,6.642000198364258 59.74800109863281,8.175999641418457 C59.74800109863281,8.175999641418457 59.74800109863281,15.64900016784668 59.74800109863281,15.64900016784668 C59.74800109863281,17.183000564575195 58.49300003051758,18.437000274658203 56.95899963378906,18.437000274658203z"></path></g></g></g></svg>